Coordinates
version=1
nRows=32
nColumns=12
inDegrees=yes

Units are S.I. units (second, meters, Newtons, ...)
Angles are in degrees

endheader
time	SC_y	SC_z	SC_x	AC_y	AC_z	AC_x	GH_y	GH_z	GH_yy	EL_x	PS_y
       0.0              -22.83          28.38          46.12          31.85          -7.09          11.91          144.3         -8.038         -72.73          22.02          20.62
   0.02069              -22.83          28.38          46.12          31.85         -7.088          11.91          144.3         -8.037          -72.7          22.03          20.62
   0.04139              -22.83          28.39          46.12          31.85         -7.086           11.9          144.3         -8.036         -72.67          22.04          20.62
   0.06208              -22.83          28.39          46.12          31.85         -7.085           11.9          144.3         -8.035         -72.63          22.05          20.62
   0.08277              -22.83          28.39          46.12          31.85         -7.083           11.9          144.3         -8.034         -72.59          22.07          20.61
    0.1035              -22.83          28.39          46.12          31.86         -7.081          11.89          144.3         -8.032         -72.54          22.09          20.61
    0.1242              -22.83          28.39          46.12          31.86         -7.079          11.89          144.3         -8.031          -72.5           22.1          20.61
    0.1449              -22.84          28.39          46.12          31.86         -7.077          11.89          144.3         -8.029         -72.45          22.12          20.61
    0.1655              -22.84           28.4          46.12          31.86         -7.075          11.88          144.3         -8.028          -72.4          22.14           20.6
    0.1862              -22.84           28.4          46.12          31.86         -7.072          11.88          144.3         -8.026         -72.34          22.16           20.6
    0.2069              -22.84           28.4          46.12          31.87         -7.069          11.88          144.3         -8.024         -72.28          22.18           20.6
    0.2276              -22.85          28.41          46.12          31.87         -7.066          11.87          144.3         -8.022         -72.21           22.2          20.59
    0.2483              -22.85          28.41          46.12          31.87         -7.063          11.87          144.3          -8.02         -72.14          22.23          20.59
     0.269              -22.85          28.41          46.12          31.87          -7.06          11.86          144.3         -8.017         -72.07          22.26          20.58
    0.2897              -22.85          28.41          46.12          31.88         -7.056          11.86          144.3         -8.015         -71.98          22.29          20.58
    0.3104              -22.86          28.42          46.12          31.88         -7.052          11.85          144.3         -8.012         -71.89          22.32          20.57
    0.3311              -22.86          28.42          46.12          31.89         -7.048          11.84          144.3         -8.009          -71.8          22.35          20.57
    0.3518              -22.87          28.43          46.12          31.89         -7.043          11.84          144.3         -8.005         -71.69          22.39          20.56
    0.3725              -22.87          28.43          46.11           31.9         -7.038          11.83          144.3         -8.002         -71.58          22.43          20.56
    0.3932              -22.87          28.44          46.11           31.9         -7.033          11.82          144.3         -7.998         -71.45          22.48          20.55
    0.4139              -22.88          28.44          46.11          31.91         -7.027          11.81          144.3         -7.993         -71.31          22.53          20.54
    0.4346              -22.89          28.45          46.11          31.91          -7.02           11.8          144.2         -7.989         -71.16          22.59          20.53
    0.4552              -22.89          28.46          46.11          31.92         -7.012          11.79          144.2         -7.983         -70.99          22.65          20.53
    0.4759               -22.9          28.47          46.11          31.93         -7.004          11.77          144.2         -7.977          -70.8          22.71          20.51
    0.4966              -22.91          28.48          46.11          31.94         -6.995          11.76          144.2         -7.971         -70.59          22.79           20.5
    0.5173              -22.92          28.49          46.11          31.95         -6.985          11.74          144.2         -7.963         -70.36          22.87          20.49
     0.538              -22.93           28.5          46.11          31.96         -6.973          11.73          144.2         -7.955          -70.1          22.97          20.48
    0.5587              -22.94          28.51           46.1          31.97          -6.96          11.71          144.2         -7.946         -69.81          23.07          20.46
    0.5794              -22.95          28.52           46.1          31.98         -6.946          11.68          144.1         -7.936         -69.48          23.19          20.44
    0.6001              -22.97          28.54           46.1           32.0         -6.929          11.66          144.1         -7.924          -69.1          23.33          20.42
    0.6208              -22.98          28.56           46.1          32.01          -6.91          11.63          144.1          -7.91         -68.67          23.48           20.4
    0.6415               -23.0          28.58           46.1          32.04         -6.888          11.59          144.1         -7.895         -68.18          23.66          20.37
